PathFileType	4	(X/Y/Z)	SUBJ51_2_walk_RCNL2025.trc
DataRate	CameraRate	NumFrames	NumMarkers	Units	OrigDataRate	OrigDataStartFrame	OrigNumFrames
100	100	14	25	mm	100	115	229
Frame#	Time	R_Shoulder			L_Shoulder			C7			J_Notch			R_Elbow			L_Elbow			R_Wrist			L_Wrist			R_Asis			L_Asis			Sacral			Thoracic			Sternum			R_Thigh_Lateral			R_Knee_Lateral			R_Shank_Lateral			R_Ankle_Lateral			R_Heel			R_Toe			L_Thigh_Lateral			L_Knee_Lateral			L_Shank_Lateral			L_Ankle_Lateral			L_Heel			L_Toe		
		X1	Y1	Z1	X2	Y2	Z2	X3	Y3	Z3	X4	Y4	Z4	X5	Y5	Z5	X6	Y6	Z6	X7	Y7	Z7	X8	Y8	Z8	X9	Y9	Z9	X10	Y10	Z10	X11	Y11	Z11	X12	Y12	Z12	X13	Y13	Z13	X14	Y14	Z14	X15	Y15	Z15	X16	Y16	Z16	X17	Y17	Z17	X18	Y18	Z18	X19	Y19	Z19	X20	Y20	Z20	X21	Y21	Z21	X22	Y22	Z22	X23	Y23	Z23	X24	Y24	Z24	X25	Y25	Z25
115	1.14000000	-165.359756	1470.085815	453.534241	-181.523773	1506.859619	-0.788834	-260.770233	1607.819702	224.661545	-119.646294	1486.984741	223.007172	-209.008469	1167.821045	543.939331	-275.706604	1197.867676	-93.912270	-76.175323	931.373383	536.765320	-230.110397	939.039856	-92.356133	-133.837357	1053.544312	344.138458	-126.661186	1036.687378	110.571953	-348.710724	1071.149170	212.562881	-365.694489	1396.590820	219.294250	-79.484665	1260.936157	210.223633	-171.221512	648.962708	413.066376	-186.884659	524.159180	362.391144	-224.945892	306.060547	418.920593	-264.308411	76.406364	299.951813	-317.324585	72.189796	243.344284	-107.685776	45.949230	275.979950	-87.804977	668.498657	-32.188290	-76.773621	555.488098	16.737135	-176.617203	403.294464	-21.380322	-293.427612	165.180832	86.665489	-322.677521	189.605179	152.781784	-174.308258	62.237545	85.316673
116	1.15000000	-150.842804	1471.256836	453.073914	-168.931427	1506.791992	-1.456222	-247.154434	1608.034302	224.492661	-106.033798	1487.308716	222.615814	-189.791885	1169.300293	545.659973	-268.182007	1198.392456	-92.636726	-49.708985	937.093536	538.262390	-229.164963	938.736542	-91.943878	-121.023590	1053.456787	344.349701	-113.225533	1036.921509	111.444489	-335.433838	1071.740723	212.122177	-352.121948	1396.875732	219.625504	-65.883904	1261.258301	210.344681	-164.789169	648.594910	413.052277	-183.416092	523.913391	362.551941	-223.438095	306.039764	418.939026	-264.106354	76.566605	299.804688	-317.144836	72.540688	243.305588	-107.509232	45.909012	275.923767	-69.350418	670.189209	-30.987593	-57.879398	556.743896	18.155712	-150.785385	399.002350	-20.902548	-254.809921	154.173752	85.728241	-285.928284	176.301682	151.862762	-129.229294	59.840065	82.949074
117	1.16000000	-136.251846	1472.083130	452.529449	-156.242569	1506.402588	-2.170173	-233.446701	1607.980103	224.238861	-92.340019	1487.303711	222.164078	-170.726532	1170.599365	547.368408	-260.673920	1198.772949	-91.490242	-23.610853	942.854187	539.622467	-227.931961	938.501038	-91.574310	-108.191376	1052.924805	344.556610	-99.848465	1036.720459	112.093544	-322.195984	1072.098999	211.631851	-338.465118	1396.936523	219.845673	-52.259796	1261.195923	210.433121	-158.263489	648.138184	413.012329	-179.865875	523.655823	362.720734	-221.797104	306.025146	418.986328	-263.909668	76.749786	299.695007	-316.971558	72.903404	243.308578	-107.335472	45.880875	275.882812	-51.558144	671.450867	-29.659565	-39.715397	557.516846	19.595224	-125.314705	394.508789	-20.369766	-215.581940	143.459442	84.712082	-248.401031	163.193466	150.946457	-84.115402	58.124321	80.272537
118	1.17000000	-121.590988	1472.576294	451.907898	-143.466995	1505.721680	-2.929158	-219.651016	1607.656616	223.908066	-78.564926	1486.972290	221.643311	-151.803467	1171.729248	549.051941	-253.114868	1199.029297	-90.462906	2.074597	948.651337	540.864838	-226.523773	938.244446	-91.188702	-95.354401	1051.971924	344.746979	-86.486725	1036.124878	112.488152	-308.984802	1072.214722	211.082169	-324.730499	1396.773804	219.961044	-38.623772	1260.751587	210.477722	-151.631638	647.593384	412.958191	-176.210846	523.386353	362.896912	-220.008926	306.025330	419.060852	-263.718323	76.961441	299.623108	-316.798615	73.268089	243.329300	-107.170250	45.865185	275.868927	-34.475819	672.256348	-28.254959	-22.273170	557.772461	20.995255	-100.203201	389.841980	-19.818521	-175.810669	133.225616	83.603081	-210.058289	150.454407	150.031021	-39.076557	57.217773	77.389915
119	1.18000000	-106.864891	1472.751099	451.214020	-130.613983	1504.782104	-3.735464	-205.773621	1607.065430	223.508560	-64.711937	1486.321777	221.045486	-133.018402	1172.702148	550.699951	-245.437897	1199.176880	-89.544373	27.318505	954.458954	541.998016	-225.032303	937.892883	-90.737930	-82.524506	1050.641968	344.902924	-73.094353	1035.190430	112.612274	-295.785156	1072.073364	210.469971	-310.925293	1396.390137	219.979721	-24.984272	1259.934326	210.460419	-144.883011	646.959656	412.894897	-172.429077	523.100342	363.069977	-218.091019	306.046448	419.151733	-263.528717	77.207268	299.582855	-316.617035	73.630531	243.341003	-107.014008	45.868633	275.892944	-18.157843	672.567261	-26.826502	-5.541615	557.488037	22.304342	-75.431038	385.028625	-19.294596	-135.577393	123.644020	82.395248	-170.959381	138.270401	149.080978	5.783805	57.246563	74.440552
120	1.19000000	-92.079384	1472.623657	450.449158	-117.687996	1503.613159	-4.594515	-191.821259	1606.210693	223.045135	-50.787243	1485.362061	220.364731	-114.373161	1173.527344	552.303345	-237.583054	1199.222046	-88.727501	52.105078	960.232727	543.020905	-223.483482	937.401794	-90.201397	-69.703880	1048.994507	345.005005	-59.626637	1033.981445	112.465485	-282.580414	1071.656494	209.800262	-297.058746	1395.789185	219.908783	-11.344039	1258.757568	210.361115	-138.007889	646.231934	412.823090	-168.493286	522.789612	363.226837	-216.067291	306.087494	419.243835	-263.333923	77.491997	299.563965	-316.416016	73.998222	243.327316	-106.863945	45.901291	275.963928	-2.661640	672.335510	-25.421778	10.487545	556.653992	23.488686	-50.965755	380.102631	-18.846066	-94.983879	114.872040	81.094498	-131.256592	126.829376	148.043213	50.358963	58.325035	71.589493
121	1.20000000	-77.242271	1472.208862	449.611694	-104.685768	1502.236572	-5.512267	-177.797958	1605.100098	222.516357	-36.797390	1484.105469	219.597870	-95.875870	1174.209351	553.852295	-229.501083	1199.160156	-88.010437	76.426332	965.918335	543.926910	-221.813179	936.765625	-89.598511	-56.884094	1047.097290	345.035217	-46.045887	1032.559692	112.065117	-269.353027	1070.946167	209.085999	-283.141632	1394.976196	219.752136	2.300013	1257.239258	210.161789	-130.993134	645.401855	412.742676	-164.363235	522.443054	363.356110	-213.944656	306.141235	419.324005	-263.124512	77.818970	299.554779	-316.185059	74.390144	243.287125	-106.717979	45.972038	276.087524	11.958297	671.509521	-24.081097	25.818438	555.275085	24.534924	-26.773199	375.114532	-18.512205	-54.156689	107.055641	79.721504	-91.161461	116.308052	146.873901	94.523819	60.540375	69.013443
122	1.21000000	-62.363148	1471.521729	448.698425	-91.595825	1500.664673	-6.492625	-163.703979	1603.743774	221.913986	-22.746880	1482.568115	218.744797	-77.539070	1174.747559	555.334229	-221.153412	1198.979004	-87.397514	100.276794	971.460785	544.707367	-219.864052	936.021820	-88.991314	-44.048317	1045.018433	344.979614	-32.327339	1030.976074	111.445900	-256.085114	1069.929199	208.344910	-269.181976	1393.956421	219.509796	15.954229	1255.402954	209.849136	-123.818336	644.460205	412.654266	-159.982452	522.045349	363.448822	-211.703201	306.198975	419.384094	-262.889252	78.191414	299.543976	-315.915741	74.831497	243.229706	-106.578133	46.083916	276.263275	25.658634	670.044678	-22.840164	40.460209	553.371460	25.443817	-2.828763	370.136536	-18.313986	-13.252003	100.327568	78.314857	-50.915241	106.863609	145.562454	138.120453	63.937740	66.882004
123	1.22000000	-47.451595	1470.576416	447.704987	-78.400459	1498.901123	-7.536071	-149.537933	1602.155396	221.224731	-8.637017	1480.770020	217.808594	-59.376926	1175.138672	556.735535	-212.510666	1198.663086	-86.898415	123.648682	976.812408	545.354279	-217.414276	935.238678	-88.470459	-31.174671	1042.820068	344.830078	-18.460489	1029.264160	110.654716	-242.761276	1068.602051	207.595337	-255.182129	1392.736450	219.178238	29.625679	1253.279541	209.416412	-116.454636	643.398865	412.558472	-155.281693	521.577454	363.496613	-209.300919	306.254639	419.420441	-262.616516	78.615631	299.521606	-315.602081	75.347450	243.164200	-106.452499	46.228374	276.479797	38.414661	667.916016	-21.734003	54.442902	550.980225	26.220058	20.876797	365.259827	-18.251627	27.532347	94.796211	76.932945	-10.776650	98.626472	144.142838	180.951508	68.510246	65.336769
124	1.23000000	-32.515381	1469.388306	446.625916	-65.079849	1496.943237	-8.639292	-135.299973	1600.352051	220.433762	5.533464	1478.734619	216.793869	-41.404339	1175.378296	558.044434	-203.552338	1198.197632	-86.525261	146.527020	981.940033	545.862305	-214.245644	934.481110	-88.120148	-18.239044	1040.552612	344.584229	-4.445714	1027.441040	109.743027	-229.370773	1066.974121	206.852524	-241.139771	1391.325439	218.752426	43.321228	1250.906982	208.863983	-108.867706	642.214294	412.455353	-150.189240	521.020752	363.491119	-206.686432	306.306152	419.432434	-262.296234	79.102448	299.479736	-315.240387	75.961426	243.093140	-106.353218	46.379013	276.709290	50.227848	665.125916	-20.797939	67.830345	548.158325	26.867769	44.338158	360.586731	-18.307076	67.940254	90.528069	75.650749	28.975174	91.689980	142.689804	222.780975	74.191727	64.472694
125	1.24000000	-17.560276	1467.974609	445.457153	-51.616570	1494.784424	-9.795468	-120.993408	1598.355469	219.528488	19.766460	1476.487183	215.705307	-23.638910	1175.461548	559.250366	-194.267288	1197.569946	-86.289467	168.886627	986.827606	546.230652	-210.215157	933.777100	-87.982094	-5.217682	1038.250854	344.244873	9.708952	1025.510254	108.760506	-215.907883	1065.068115	206.125427	-227.050568	1389.736816	218.228699	57.047588	1248.329224	208.198837	-101.023064	640.910034	412.343445	-144.644150	520.362854	363.425659	-203.812576	306.356171	419.421936	-261.922333	79.663651	299.414642	-314.830109	76.697220	243.012619	-106.287354	46.491951	276.910156	61.138779	661.704834	-20.063974	80.724709	544.984680	27.395008	67.535446	356.221283	-18.446667	107.650505	87.531563	74.550468	68.032890	86.096474	141.304581	263.337646	80.849152	64.325020
126	1.25000000	-2.590872	1466.356934	444.199005	-37.999714	1492.419312	-10.995343	-106.623642	1596.190674	218.501450	34.063011	1474.054932	214.547409	-6.102553	1175.384155	560.341431	-184.651047	1196.769043	-86.199959	190.695534	991.469757	546.462555	-205.280479	933.109009	-88.045223	7.909398	1035.932861	343.820404	23.984514	1023.466003	107.752747	-202.371185	1062.921997	205.414413	-212.910248	1387.988892	217.606781	70.811180	1245.591919	207.433456	-92.890434	639.499329	412.218719	-138.606262	519.601929	363.297974	-200.645966	306.414612	419.392639	-261.493011	80.310219	299.329681	-314.373474	77.581161	242.918137	-106.249092	46.521889	277.042664	71.245605	657.713501	-19.554686	93.262306	541.560547	27.821806	90.423058	352.255554	-18.622997	146.288681	85.746017	73.709045	106.057709	81.823029	140.096634	302.321625	88.276642	64.865219
127	1.26000000	12.388699	1464.561035	442.857300	-24.227203	1489.847534	-12.229642	-92.196411	1593.884033	217.351364	48.423306	1471.468628	213.325455	11.179682	1175.145020	561.303040	-174.699417	1195.786133	-86.262497	211.924164	995.858246	546.562469	-199.469635	932.428253	-88.266220	21.155212	1033.601807	343.325562	38.339779	1021.294617	106.765137	-188.762817	1060.588623	204.709976	-198.716385	1386.104614	216.890305	84.617966	1242.739746	206.584549	-84.445145	638.004883	412.073669	-132.059753	518.748291	363.111603	-197.170441	306.500244	419.348297	-261.007721	81.058968	299.237366	-313.871338	78.645203	242.818054	-106.223602	46.444263	277.085083	80.722260	653.249756	-19.276283	105.603493	538.005127	28.183115	112.907982	348.750824	-18.777130	183.451065	85.035881	73.186508	142.683044	78.771729	139.166260	339.418060	96.195412	66.008362
128	1.27000000	27.374859	1462.616821	441.442474	-10.304523	1487.078003	-13.492832	-77.716423	1591.463745	216.081970	62.847179	1468.761719	212.045029	28.182205	1174.747192	562.119324	-164.402359	1194.615356	-86.479675	232.551460	999.973877	546.535797	-192.829361	931.674805	-88.601639	34.523293	1031.250122	342.782318	52.699265	1018.973083	105.850098	-175.085281	1058.133789	203.992355	-184.468216	1384.110962	216.086914	98.473961	1239.814697	205.671585	-75.666000	636.456238	411.898468	-125.011299	517.823242	362.876068	-193.385635	306.637543	419.290985	-260.463226	81.939751	299.160187	-313.318542	79.928268	242.743179	-106.195435	46.261143	277.035370	89.829689	648.456360	-19.210802	117.921898	534.445801	28.523359	134.836029	345.722137	-18.840626	218.728806	85.191948	73.020142	177.524384	76.769073	138.591537	374.316528	104.260948	67.631470
